<?xml version="1.0" standalone="no"?>
<!DOCTYPE svg PUBLIC "-//W3C//DTD SVG 20010904//EN"
 "http://www.w3.org/TR/2001/REC-SVG-20010904/DTD/svg10.dtd">
<svg version="1.0" xmlns="http://www.w3.org/2000/svg"
 width="41.000000pt" height="43.000000pt" viewBox="0 0 41.000000 43.000000"
 preserveAspectRatio="xMidYMid meet">

<g transform="translate(0.000000,43.000000) scale(0.100000,-0.100000)"
fill="#000000" stroke="none">
<path d="M183 303 c-17 -6 -16 -53 1 -75 31 -41 56 -11 47 55 -3 26 -18 33
-48 20z"/>
<path d="M120 159 c0 -5 5 -7 10 -4 6 3 10 8 10 11 0 2 -4 4 -10 4 -5 0 -10
-5 -10 -11z"/>
<path d="M220 160 c0 -5 5 -10 10 -10 6 0 10 5 10 10 0 6 -4 10 -10 10 -5 0
-10 -4 -10 -10z"/>
</g>
</svg>
