<svg xmlns="http://www.w3.org/2000/svg" width="41" height="43" viewBox="0 0 64 64">
  <path fill="#445b69" d="M64 41.34H0V4.01c0-1.08.88-1.96 1.96-1.96h60.08c1.08 0 1.96.88 1.96 1.96v37.33z"></path>
  <path fill="#f1b974" d="M60.074 5.964v31.45H3.924V5.964z"></path>
  <path fill="#eff3f5" d="M62.04 50.91H1.96C.88 50.91 0 50.03 0 48.95v-7.6h64v7.6c0 1.08-.88 1.96-1.96 1.96z"></path>
  <path fill="#dededf" d="M.15 49.71c.3.71 1 1.2 1.81 1.2h60.08c1.08 0 1.96-.88 1.96-1.96v-7.6h-1.06v6.54c0 1.08-.88 1.96-1.96 1.96H.9c-.27 0-.52-.05-.75-.14z"></path>
  <circle cx="5.67" cy="46.13" r="1.75" fill="#c6c1c1"></circle>
  <circle cx="11.94" cy="46.13" r="1.75" fill="#c6c1c1"></circle>
  <circle cx="18.2" cy="46.13" r="1.75" fill="#c6c1c1"></circle>
  <path fill="#c9c9d1" d="M49.17 61.21H14.83l4-5.08h26.34z"></path>
  <path fill="#eff3f5" d="M23.83 50.91h16.35v7.36H23.83z"></path>
  <path fill="#c6c1c1" d="M23.83 50.91h16.35v1.61H23.83z"></path>
  <path fill="#e5e5e5" d="M14.83 61.21h34.34v.75H14.83z"></path>
  <path fill="#eff3f5" d="M51.82 33.55H12.17c-.55 0-1-.45-1-1V10.84c0-.55.45-1 1-1h39.65c.55 0 1 .45 1 1v21.71c0 .55-.44 1-1 1z"></path>
  <path fill="#41acd8" d="M50.67 28.53V14.86A2.86 2.86 0 0 1 47.81 12H16.2a2.86 2.86 0 0 1-2.86 2.86v13.67a2.86 2.86 0 0 1 2.86 2.86h31.61c-.01-1.58 1.28-2.86 2.86-2.86z"></path>
  <path fill="#eff3f5" d="M39.48 21.69c0 4.13-3.35 7.48-7.48 7.48-4.13 0-7.48-3.35-7.48-7.48 0-4.13 3.35-7.48 7.48-7.48 4.13 0 7.48 3.35 7.48 7.48z"></path>
  <path fill="#41acd8" d="M31.61 24.34v-2.35c-.73-.21-1.27-.53-1.61-.95-.34-.42-.51-.94-.51-1.54 0-.61.19-1.13.58-1.54.39-.42.9-.66 1.54-.72v-.55h.81v.55c.59.07 1.07.27 1.42.61.35.33.58.78.67 1.34l-1.42.18c-.09-.44-.31-.74-.67-.9v2.19c.9.24 1.51.56 1.83.94c.32.39.49.88.49 1.49 0 .68-.2 1.25-.61 1.71-.41.46-.98.75-1.71.85v1.05h-.81v-1.02c-.65-.08-1.17-.32-1.57-.72-.4-.4-.66-.97-.77-1.71l1.46-.16c.06.3.17.56.34.77c.15.23.34.38.54.48zm0-5.88c-.22.07-.4.2-.53.38a1 1 0 0 0-.2.59c0 .2.06.38.18.55.12.17.3.31.54.41l.01-1.93zm.81 5.96c.28-.05.51-.18.68-.39.18-.21.26-.45.26-.73 0-.25-.07-.47-.22-.65-.15-.18-.39-.32-.73-.42l.01 2.19z"></path>
  <path fill="#eff3f5" d="M47.71 21.69c0 1.07-.87 1.94-1.94 1.94-1.07 0-1.94-.87-1.94-1.94 0-1.07.87-1.94 1.94-1.94 1.07 0 1.94.87 1.94 1.94zm-27.53.01c0 1.07-.87 1.94-1.94 1.94-1.07 0-1.94-.87-1.94-1.94 0-1.07.87-1.94 1.94-1.94 1.07 0 1.94 1.94z"></path>
  <path fill="#324a5e" d="m13.65 26.11 1.89 1.2-4.36 4.36 1.69 1.69L17.23 29l1.2 1.89 1.12-5.9z"></path>
</svg>